<svg id="Layer_1" data-name="Layer 1" xmlns="http://www.w3.org/2000/svg" viewBox="0 0 68.68 187.8"><defs><style>.cls-1,.cls-2{fill:none;}.cls-2{stroke:#000;stroke-miterlimit:10;}</style></defs><title>forknknife</title><path d="M247.93,163.75c-1.83-11.62-4.46-23.12-7.06-34.61-.28-1.24-2.56-2-3.91-3-.71,1.3-2,2.6-2,3.92-.12,9.16,0,18.33.08,27.5,0,1.49-.22,3-.33,4.49l-1.28,0c-.14-1.52-.33-3-.4-4.56-.36-8.49-.56-17-1.14-25.46-.11-1.62-1.64-3.14-2.51-4.7-1.11,1.6-2.33,3.14-3.27,4.83-.36.65,0,1.64-.11,2.47-.56,8.64-1.12,17.29-1.73,25.93a23,23,0,0,1-.75,3.42l-1.63-.1V128.11l-2.47-.86c-1,1.63-2.46,3.14-2.86,4.91-2.3,10-5,20-6.3,30.2-1.23,9.26.59,18.16,7.43,25.49,1.47,1.57,2.15,4.49,2.11,6.77-.36,20-1.21,40-1.42,60-.16,16.14.19,32.31.76,48.44A11.68,11.68,0,0,0,223,311c6,4.58,14.38-.83,14.29-8-.48-34.82-.11-69.66-.24-104.49,0-5.26,1.13-9.79,4.49-13.85C246.55,178.59,249.14,171.44,247.93,163.75Zm-17.34,38.39c.35,32,.16,63.94.16,95.91a14.17,14.17,0,0,1-.1,4c-.33,1.06-1.4,1.89-2.14,2.82-.93-.78-2.47-1.42-2.69-2.36a38.64,38.64,0,0,1-.8-7.9c-.35-33.29-.55-66.6-1.06-99.89-.05-3.26-.94-7.34-3-9.58-6.61-7.15-8-15.4-6.91-24.45.72-5.72,1.9-11.39,2.88-17.07l1.31,0c0,6,.35,12-.1,17.89-.41,5.43,3.55,5,6.47,5,1.1,0,2.79-3,3.16-4.79.54-2.7.14-5.6.14-8.41l.87,0c.24,3.45.56,6.9.68,10.35.11,3.13,1.75,3.85,4.58,3.59,2.6-.25,5.09-.14,5-3.89a94.5,94.5,0,0,1,.49-13.35c2.56,10.2,4.62,20.64-2.19,29.89C232.29,186.72,230.5,193.76,230.59,202.14Z" transform="translate(-209.86 -125.68)"/><path class="cls-1" d="M237.32,179.89c-5,6.83-6.82,13.87-6.73,22.25.35,32,.16,63.94.16,95.91a14.17,14.17,0,0,1-.1,4c-.33,1.06-1.4,1.89-2.14,2.82-.93-.78-2.47-1.42-2.69-2.36a38.64,38.64,0,0,1-.8-7.9c-.35-33.29-.55-66.6-1.06-99.89-.05-3.26-.94-7.34-3-9.58-6.61-7.15-8-15.4-6.91-24.45.72-5.72,1.9-11.39,2.88-17.07l1.31,0c0,6,.35,12-.1,17.89-.41,5.43,3.55,5,6.47,5,1.1,0,2.79-3,3.16-4.79.54-2.7.14-5.6.14-8.41l.87,0c.24,3.45.56,6.9.68,10.35.11,3.13,1.75,3.85,4.58,3.59,2.6-.25,5.09-.14,5-3.89a94.5,94.5,0,0,1,.49-13.35C242.07,160.2,244.13,170.64,237.32,179.89Z" transform="translate(-209.86 -125.68)"/><path d="M278,216.87q0,39.94,0,79.91a43.91,43.91,0,0,1-.69,8.42c-1.16,5.8-4.25,8.11-9.74,7.74-4.94-.32-9.3-4.19-9.52-9.19-.72-16.11-1.58-32.23-1.61-48.35,0-14.47.83-29,1.55-43.42a19.66,19.66,0,0,0-3.33-12.64A14.57,14.57,0,0,1,252,192q-.34-23,0-45.92a28.56,28.56,0,0,1,2-9.19c3.41-9.31,9.92-12.65,19.22-9.68,1.37.43,2.84,3.07,2.89,4.73.29,9.15.14,18.31.14,27.47v57.44Zm-5.14-81.35c.09-6.52-.62-7.48-7.08-6.29-2.6.48-5.93,3-6.83,5.44a54.31,54.31,0,0,0-3.76,16.79c-.43,11,.39,22,.29,32.95-.06,5.86,1.06,11,4.41,16a18.56,18.56,0,0,1,3,9.63c.22,20.15-.08,40.3.06,60.45.07,9.31.59,18.63,1.29,27.91.16,2.1,1.91,4.07,2.92,6.1,1.26-2,3.31-4,3.6-6.14a116.3,116.3,0,0,0,.54-14.95q.07-34,0-67.94h.34Q272.3,175.49,272.9,135.52Z" transform="translate(-209.86 -125.68)"/><path class="cls-2" d="M278,216.87q0,39.94,0,79.91a43.91,43.91,0,0,1-.69,8.42c-1.16,5.8-4.25,8.11-9.74,7.74-4.94-.32-9.3-4.19-9.52-9.19-.72-16.11-1.58-32.23-1.61-48.35,0-14.47.83-29,1.55-43.42a19.66,19.66,0,0,0-3.33-12.64A14.57,14.57,0,0,1,252,192q-.34-23,0-45.92a28.56,28.56,0,0,1,2-9.19c3.41-9.31,9.92-12.65,19.22-9.68,1.37.43,2.84,3.07,2.89,4.73.29,9.15.14,18.31.14,27.47v57.44Z" transform="translate(-209.86 -125.68)"/><path class="cls-2" d="M271.33,215.43h.34q.63-39.94,1.23-79.91c.09-6.52-.62-7.48-7.08-6.29-2.6.48-5.93,3-6.83,5.44a54.31,54.31,0,0,0-3.76,16.79c-.43,11,.39,22,.29,32.95-.06,5.86,1.06,11,4.41,16a18.56,18.56,0,0,1,3,9.63c.22,20.15-.08,40.3.06,60.45.07,9.31.59,18.63,1.29,27.91.16,2.1,1.91,4.07,2.92,6.1,1.26-2,3.31-4,3.6-6.14a116.3,116.3,0,0,0,.54-14.95Q271.39,249.4,271.33,215.43Z" transform="translate(-209.86 -125.68)"/></svg>